<?xml version="1.0" encoding="UTF-8" standalone="no"?>
<!DOCTYPE svg PUBLIC "-//W3C//DTD SVG 1.1//EN"
 "http://www.w3.org/Graphics/SVG/1.1/DTD/svg11.dtd">
<!-- Generated by graphviz version 2.40.1 (20161225.0304)
 -->
<!-- Title: controllers_diagram Pages: 1 -->
<svg width="1152pt" height="1199pt"
 viewBox="0.00 0.00 1151.93 1199.00" xmlns="http://www.w3.org/2000/svg" xmlns:xlink="http://www.w3.org/1999/xlink">
<g id="graph0" class="graph" transform="scale(1 1) rotate(0) translate(4 1195)">
<title>controllers_diagram</title>
<polygon fill="transparent" stroke="transparent" points="-4,4 -4,-1195 1147.9316,-1195 1147.9316,4 -4,4"/>
<!-- _diagram_info -->
<g id="node1" class="node">
<title>_diagram_info</title>
<text text-anchor="start" x="712" y="-102.6" font-family="Times,serif" font-size="13.00" fill="#000000">Controllers diagram</text>
<text text-anchor="start" x="712" y="-89.6" font-family="Times,serif" font-size="13.00" fill="#000000">Date: May 26 2017 &#45; 13:40</text>
<text text-anchor="start" x="712" y="-76.6" font-family="Times,serif" font-size="13.00" fill="#000000">Migration version: 20170523001804</text>
<text text-anchor="start" x="712" y="-63.6" font-family="Times,serif" font-size="13.00" fill="#000000">Generated by RailRoady 1.5.2</text>
<text text-anchor="start" x="712" y="-50.6" font-family="Times,serif" font-size="13.00" fill="#000000">http://railroady.prestonlee.com</text>
</g>
<!-- Admin::DashboardController -->
<g id="node2" class="node">
<title>Admin::DashboardController</title>
<path fill="none" stroke="#000000" d="M650,-924.5C650,-924.5 806.8623,-924.5 806.8623,-924.5 812.8623,-924.5 818.8623,-930.5 818.8623,-936.5 818.8623,-936.5 818.8623,-1098.5 818.8623,-1098.5 818.8623,-1104.5 812.8623,-1110.5 806.8623,-1110.5 806.8623,-1110.5 650,-1110.5 650,-1110.5 644,-1110.5 638,-1104.5 638,-1098.5 638,-1098.5 638,-936.5 638,-936.5 638,-930.5 644,-924.5 650,-924.5"/>
<text text-anchor="middle" x="728.4312" y="-1095.3" font-family="Times,serif" font-size="14.00" fill="#000000">Admin::DashboardController</text>
<polyline fill="none" stroke="#000000" points="638,-1088.5 818.8623,-1088.5 "/>
<text text-anchor="start" x="646" y="-1073.3" font-family="Times,serif" font-size="14.00" fill="#000000">index</text>
<polyline fill="none" stroke="#000000" points="638,-1066.5 818.8623,-1066.5 "/>
<text text-anchor="start" x="646" y="-1051.3" font-family="Times,serif" font-size="14.00" fill="#000000">resource_url</text>
<text text-anchor="start" x="646" y="-1037.3" font-family="Times,serif" font-size="14.00" fill="#000000">collection_url</text>
<text text-anchor="start" x="646" y="-1023.3" font-family="Times,serif" font-size="14.00" fill="#000000">edit_resource_path</text>
<text text-anchor="start" x="646" y="-1009.3" font-family="Times,serif" font-size="14.00" fill="#000000">edit_resource_url</text>
<text text-anchor="start" x="646" y="-995.3" font-family="Times,serif" font-size="14.00" fill="#000000">new_resource_path</text>
<text text-anchor="start" x="646" y="-981.3" font-family="Times,serif" font-size="14.00" fill="#000000">new_resource_url</text>
<text text-anchor="start" x="646" y="-967.3" font-family="Times,serif" font-size="14.00" fill="#000000">resource_path</text>
<text text-anchor="start" x="646" y="-953.3" font-family="Times,serif" font-size="14.00" fill="#000000">collection_path</text>
<polyline fill="none" stroke="#000000" points="638,-946.5 818.8623,-946.5 "/>
<text text-anchor="start" x="646" y="-931.3" font-family="Times,serif" font-size="14.00" fill="#000000">_layout</text>
</g>
<!-- Admin::InstitutionsController -->
<g id="node3" class="node">
<title>Admin::InstitutionsController</title>
<path fill="none" stroke="#000000" d="M650,-660.5C650,-660.5 809.2207,-660.5 809.2207,-660.5 815.2207,-660.5 821.2207,-666.5 821.2207,-672.5 821.2207,-672.5 821.2207,-876.5 821.2207,-876.5 821.2207,-882.5 815.2207,-888.5 809.2207,-888.5 809.2207,-888.5 650,-888.5 650,-888.5 644,-888.5 638,-882.5 638,-876.5 638,-876.5 638,-672.5 638,-672.5 638,-666.5 644,-660.5 650,-660.5"/>
<text text-anchor="middle" x="729.6104" y="-873.3" font-family="Times,serif" font-size="14.00" fill="#000000">Admin::InstitutionsController</text>
<polyline fill="none" stroke="#000000" points="638,-866.5 821.2207,-866.5 "/>
<text text-anchor="start" x="646" y="-851.3" font-family="Times,serif" font-size="14.00" fill="#000000">edit</text>
<text text-anchor="start" x="646" y="-837.3" font-family="Times,serif" font-size="14.00" fill="#000000">index</text>
<text text-anchor="start" x="646" y="-823.3" font-family="Times,serif" font-size="14.00" fill="#000000">new</text>
<polyline fill="none" stroke="#000000" points="638,-816.5 821.2207,-816.5 "/>
<text text-anchor="start" x="646" y="-801.3" font-family="Times,serif" font-size="14.00" fill="#000000">resource_url</text>
<text text-anchor="start" x="646" y="-787.3" font-family="Times,serif" font-size="14.00" fill="#000000">collection_url</text>
<text text-anchor="start" x="646" y="-773.3" font-family="Times,serif" font-size="14.00" fill="#000000">edit_resource_path</text>
<text text-anchor="start" x="646" y="-759.3" font-family="Times,serif" font-size="14.00" fill="#000000">edit_resource_url</text>
<text text-anchor="start" x="646" y="-745.3" font-family="Times,serif" font-size="14.00" fill="#000000">new_resource_path</text>
<text text-anchor="start" x="646" y="-731.3" font-family="Times,serif" font-size="14.00" fill="#000000">new_resource_url</text>
<text text-anchor="start" x="646" y="-717.3" font-family="Times,serif" font-size="14.00" fill="#000000">resource_path</text>
<text text-anchor="start" x="646" y="-703.3" font-family="Times,serif" font-size="14.00" fill="#000000">collection_path</text>
<polyline fill="none" stroke="#000000" points="638,-696.5 821.2207,-696.5 "/>
<text text-anchor="start" x="646" y="-681.3" font-family="Times,serif" font-size="14.00" fill="#000000">_layout</text>
<text text-anchor="start" x="646" y="-667.3" font-family="Times,serif" font-size="14.00" fill="#000000">institution_params</text>
</g>
<!-- Admin::UsersController -->
<g id="node4" class="node">
<title>Admin::UsersController</title>
<path fill="none" stroke="#000000" d="M804,-154.5C804,-154.5 932.0967,-154.5 932.0967,-154.5 938.0967,-154.5 944.0967,-160.5 944.0967,-166.5 944.0967,-166.5 944.0967,-398.5 944.0967,-398.5 944.0967,-404.5 938.0967,-410.5 932.0967,-410.5 932.0967,-410.5 804,-410.5 804,-410.5 798,-410.5 792,-404.5 792,-398.5 792,-398.5 792,-166.5 792,-166.5 792,-160.5 798,-154.5 804,-154.5"/>
<text text-anchor="middle" x="868.0483" y="-395.3" font-family="Times,serif" font-size="14.00" fill="#000000">Admin::UsersController</text>
<polyline fill="none" stroke="#000000" points="792,-388.5 944.0967,-388.5 "/>
<text text-anchor="start" x="800" y="-373.3" font-family="Times,serif" font-size="14.00" fill="#000000">edit</text>
<text text-anchor="start" x="800" y="-359.3" font-family="Times,serif" font-size="14.00" fill="#000000">index</text>
<text text-anchor="start" x="800" y="-345.3" font-family="Times,serif" font-size="14.00" fill="#000000">new</text>
<text text-anchor="start" x="800" y="-331.3" font-family="Times,serif" font-size="14.00" fill="#000000">resend_invitation</text>
<text text-anchor="start" x="800" y="-317.3" font-family="Times,serif" font-size="14.00" fill="#000000">student_course_field</text>
<polyline fill="none" stroke="#000000" points="792,-310.5 944.0967,-310.5 "/>
<text text-anchor="start" x="800" y="-295.3" font-family="Times,serif" font-size="14.00" fill="#000000">resource_url</text>
<text text-anchor="start" x="800" y="-281.3" font-family="Times,serif" font-size="14.00" fill="#000000">collection_url</text>
<text text-anchor="start" x="800" y="-267.3" font-family="Times,serif" font-size="14.00" fill="#000000">edit_resource_path</text>
<text text-anchor="start" x="800" y="-253.3" font-family="Times,serif" font-size="14.00" fill="#000000">edit_resource_url</text>
<text text-anchor="start" x="800" y="-239.3" font-family="Times,serif" font-size="14.00" fill="#000000">new_resource_path</text>
<text text-anchor="start" x="800" y="-225.3" font-family="Times,serif" font-size="14.00" fill="#000000">new_resource_url</text>
<text text-anchor="start" x="800" y="-211.3" font-family="Times,serif" font-size="14.00" fill="#000000">resource_path</text>
<text text-anchor="start" x="800" y="-197.3" font-family="Times,serif" font-size="14.00" fill="#000000">collection_path</text>
<polyline fill="none" stroke="#000000" points="792,-190.5 944.0967,-190.5 "/>
<text text-anchor="start" x="800" y="-175.3" font-family="Times,serif" font-size="14.00" fill="#000000">_layout</text>
<text text-anchor="start" x="800" y="-161.3" font-family="Times,serif" font-size="14.00" fill="#000000">user_params</text>
</g>
<!-- ApplicationController -->
<g id="node5" class="node">
<title>ApplicationController</title>
<path fill="none" stroke="#000000" d="M958,-.5C958,-.5 1131.9316,-.5 1131.9316,-.5 1137.9316,-.5 1143.9316,-6.5 1143.9316,-12.5 1143.9316,-12.5 1143.9316,-76.5 1143.9316,-76.5 1143.9316,-82.5 1137.9316,-88.5 1131.9316,-88.5 1131.9316,-88.5 958,-88.5 958,-88.5 952,-88.5 946,-82.5 946,-76.5 946,-76.5 946,-12.5 946,-12.5 946,-6.5 952,-.5 958,-.5"/>
<text text-anchor="middle" x="1044.9658" y="-73.3" font-family="Times,serif" font-size="14.00" fill="#000000">ApplicationController</text>
<polyline fill="none" stroke="#000000" points="946,-66.5 1143.9316,-66.5 "/>
<text text-anchor="start" x="954" y="-51.3" font-family="Times,serif" font-size="14.00" fill="#000000">go_home</text>
<polyline fill="none" stroke="#000000" points="946,-44.5 1143.9316,-44.5 "/>
<text text-anchor="start" x="954" y="-29.3" font-family="Times,serif" font-size="14.00" fill="#000000">configure_permitted_parameters</text>
<polyline fill="none" stroke="#000000" points="946,-22.5 1143.9316,-22.5 "/>
<text text-anchor="start" x="954" y="-7.3" font-family="Times,serif" font-size="14.00" fill="#000000">_layout</text>
</g>
<!-- ChatsController -->
<g id="node6" class="node">
<title>ChatsController</title>
<path fill="none" stroke="#000000" d="M188,-330.5C188,-330.5 288.8418,-330.5 288.8418,-330.5 294.8418,-330.5 300.8418,-336.5 300.8418,-342.5 300.8418,-342.5 300.8418,-588.5 300.8418,-588.5 300.8418,-594.5 294.8418,-600.5 288.8418,-600.5 288.8418,-600.5 188,-600.5 188,-600.5 182,-600.5 176,-594.5 176,-588.5 176,-588.5 176,-342.5 176,-342.5 176,-336.5 182,-330.5 188,-330.5"/>
<text text-anchor="middle" x="238.4209" y="-585.3" font-family="Times,serif" font-size="14.00" fill="#000000">ChatsController</text>
<polyline fill="none" stroke="#000000" points="176,-578.5 300.8418,-578.5 "/>
<text text-anchor="start" x="184" y="-563.3" font-family="Times,serif" font-size="14.00" fill="#000000">counter</text>
<text text-anchor="start" x="184" y="-549.3" font-family="Times,serif" font-size="14.00" fill="#000000">index</text>
<text text-anchor="start" x="184" y="-535.3" font-family="Times,serif" font-size="14.00" fill="#000000">messages</text>
<text text-anchor="start" x="184" y="-521.3" font-family="Times,serif" font-size="14.00" fill="#000000">send_message</text>
<polyline fill="none" stroke="#000000" points="176,-514.5 300.8418,-514.5 "/>
<text text-anchor="start" x="184" y="-499.3" font-family="Times,serif" font-size="14.00" fill="#000000">resource_url</text>
<text text-anchor="start" x="184" y="-485.3" font-family="Times,serif" font-size="14.00" fill="#000000">collection_url</text>
<text text-anchor="start" x="184" y="-471.3" font-family="Times,serif" font-size="14.00" fill="#000000">edit_resource_path</text>
<text text-anchor="start" x="184" y="-457.3" font-family="Times,serif" font-size="14.00" fill="#000000">edit_resource_url</text>
<text text-anchor="start" x="184" y="-443.3" font-family="Times,serif" font-size="14.00" fill="#000000">new_resource_path</text>
<text text-anchor="start" x="184" y="-429.3" font-family="Times,serif" font-size="14.00" fill="#000000">new_resource_url</text>
<text text-anchor="start" x="184" y="-415.3" font-family="Times,serif" font-size="14.00" fill="#000000">resource_path</text>
<text text-anchor="start" x="184" y="-401.3" font-family="Times,serif" font-size="14.00" fill="#000000">collection_path</text>
<polyline fill="none" stroke="#000000" points="176,-394.5 300.8418,-394.5 "/>
<text text-anchor="start" x="184" y="-379.3" font-family="Times,serif" font-size="14.00" fill="#000000">_layout</text>
<text text-anchor="start" x="184" y="-365.3" font-family="Times,serif" font-size="14.00" fill="#000000">chat_parameters</text>
<text text-anchor="start" x="184" y="-351.3" font-family="Times,serif" font-size="14.00" fill="#000000">contacts_collection</text>
<text text-anchor="start" x="184" y="-337.3" font-family="Times,serif" font-size="14.00" fill="#000000">mark_as_read</text>
</g>
<!-- ClassroomsController -->
<g id="node7" class="node">
<title>ClassroomsController</title>
<path fill="none" stroke="#000000" d="M144,-814.5C144,-814.5 258.8828,-814.5 258.8828,-814.5 264.8828,-814.5 270.8828,-820.5 270.8828,-826.5 270.8828,-826.5 270.8828,-1030.5 270.8828,-1030.5 270.8828,-1036.5 264.8828,-1042.5 258.8828,-1042.5 258.8828,-1042.5 144,-1042.5 144,-1042.5 138,-1042.5 132,-1036.5 132,-1030.5 132,-1030.5 132,-826.5 132,-826.5 132,-820.5 138,-814.5 144,-814.5"/>
<text text-anchor="middle" x="201.4414" y="-1027.3" font-family="Times,serif" font-size="14.00" fill="#000000">ClassroomsController</text>
<polyline fill="none" stroke="#000000" points="132,-1020.5 270.8828,-1020.5 "/>
<text text-anchor="start" x="140" y="-1005.3" font-family="Times,serif" font-size="14.00" fill="#000000">chat_counter</text>
<text text-anchor="start" x="140" y="-991.3" font-family="Times,serif" font-size="14.00" fill="#000000">chat_messages</text>
<text text-anchor="start" x="140" y="-977.3" font-family="Times,serif" font-size="14.00" fill="#000000">chat_send_message</text>
<text text-anchor="start" x="140" y="-963.3" font-family="Times,serif" font-size="14.00" fill="#000000">forum</text>
<polyline fill="none" stroke="#000000" points="132,-956.5 270.8828,-956.5 "/>
<text text-anchor="start" x="140" y="-941.3" font-family="Times,serif" font-size="14.00" fill="#000000">resource_url</text>
<text text-anchor="start" x="140" y="-927.3" font-family="Times,serif" font-size="14.00" fill="#000000">collection_url</text>
<text text-anchor="start" x="140" y="-913.3" font-family="Times,serif" font-size="14.00" fill="#000000">edit_resource_path</text>
<text text-anchor="start" x="140" y="-899.3" font-family="Times,serif" font-size="14.00" fill="#000000">edit_resource_url</text>
<text text-anchor="start" x="140" y="-885.3" font-family="Times,serif" font-size="14.00" fill="#000000">new_resource_path</text>
<text text-anchor="start" x="140" y="-871.3" font-family="Times,serif" font-size="14.00" fill="#000000">new_resource_url</text>
<text text-anchor="start" x="140" y="-857.3" font-family="Times,serif" font-size="14.00" fill="#000000">resource_path</text>
<text text-anchor="start" x="140" y="-843.3" font-family="Times,serif" font-size="14.00" fill="#000000">collection_path</text>
<polyline fill="none" stroke="#000000" points="132,-836.5 270.8828,-836.5 "/>
<text text-anchor="start" x="140" y="-821.3" font-family="Times,serif" font-size="14.00" fill="#000000">_layout</text>
</g>
<!-- ForumsController -->
<g id="node8" class="node">
<title>ForumsController</title>
<path fill="none" stroke="#000000" d="M980,-990.5C980,-990.5 1080.8418,-990.5 1080.8418,-990.5 1086.8418,-990.5 1092.8418,-996.5 1092.8418,-1002.5 1092.8418,-1002.5 1092.8418,-1178.5 1092.8418,-1178.5 1092.8418,-1184.5 1086.8418,-1190.5 1080.8418,-1190.5 1080.8418,-1190.5 980,-1190.5 980,-1190.5 974,-1190.5 968,-1184.5 968,-1178.5 968,-1178.5 968,-1002.5 968,-1002.5 968,-996.5 974,-990.5 980,-990.5"/>
<text text-anchor="middle" x="1030.4209" y="-1175.3" font-family="Times,serif" font-size="14.00" fill="#000000">ForumsController</text>
<polyline fill="none" stroke="#000000" points="968,-1168.5 1092.8418,-1168.5 "/>
<text text-anchor="start" x="976" y="-1153.3" font-family="Times,serif" font-size="14.00" fill="#000000">resource</text>
<text text-anchor="start" x="976" y="-1139.3" font-family="Times,serif" font-size="14.00" fill="#000000">show</text>
<polyline fill="none" stroke="#000000" points="968,-1132.5 1092.8418,-1132.5 "/>
<text text-anchor="start" x="976" y="-1117.3" font-family="Times,serif" font-size="14.00" fill="#000000">resource_url</text>
<text text-anchor="start" x="976" y="-1103.3" font-family="Times,serif" font-size="14.00" fill="#000000">collection_url</text>
<text text-anchor="start" x="976" y="-1089.3" font-family="Times,serif" font-size="14.00" fill="#000000">edit_resource_path</text>
<text text-anchor="start" x="976" y="-1075.3" font-family="Times,serif" font-size="14.00" fill="#000000">edit_resource_url</text>
<text text-anchor="start" x="976" y="-1061.3" font-family="Times,serif" font-size="14.00" fill="#000000">new_resource_path</text>
<text text-anchor="start" x="976" y="-1047.3" font-family="Times,serif" font-size="14.00" fill="#000000">new_resource_url</text>
<text text-anchor="start" x="976" y="-1033.3" font-family="Times,serif" font-size="14.00" fill="#000000">resource_path</text>
<text text-anchor="start" x="976" y="-1019.3" font-family="Times,serif" font-size="14.00" fill="#000000">collection_path</text>
<polyline fill="none" stroke="#000000" points="968,-1012.5 1092.8418,-1012.5 "/>
<text text-anchor="start" x="976" y="-997.3" font-family="Times,serif" font-size="14.00" fill="#000000">_layout</text>
</g>
<!-- PostsController -->
<g id="node9" class="node">
<title>PostsController</title>
<path fill="none" stroke="#000000" d="M474,-902.5C474,-902.5 574.8418,-902.5 574.8418,-902.5 580.8418,-902.5 586.8418,-908.5 586.8418,-914.5 586.8418,-914.5 586.8418,-1132.5 586.8418,-1132.5 586.8418,-1138.5 580.8418,-1144.5 574.8418,-1144.5 574.8418,-1144.5 474,-1144.5 474,-1144.5 468,-1144.5 462,-1138.5 462,-1132.5 462,-1132.5 462,-914.5 462,-914.5 462,-908.5 468,-902.5 474,-902.5"/>
<text text-anchor="middle" x="524.4209" y="-1129.3" font-family="Times,serif" font-size="14.00" fill="#000000">PostsController</text>
<polyline fill="none" stroke="#000000" points="462,-1122.5 586.8418,-1122.5 "/>
<text text-anchor="start" x="470" y="-1107.3" font-family="Times,serif" font-size="14.00" fill="#000000">create</text>
<text text-anchor="start" x="470" y="-1093.3" font-family="Times,serif" font-size="14.00" fill="#000000">forum</text>
<text text-anchor="start" x="470" y="-1079.3" font-family="Times,serif" font-size="14.00" fill="#000000">index</text>
<text text-anchor="start" x="470" y="-1065.3" font-family="Times,serif" font-size="14.00" fill="#000000">remove_comment</text>
<polyline fill="none" stroke="#000000" points="462,-1058.5 586.8418,-1058.5 "/>
<text text-anchor="start" x="470" y="-1043.3" font-family="Times,serif" font-size="14.00" fill="#000000">resource_url</text>
<text text-anchor="start" x="470" y="-1029.3" font-family="Times,serif" font-size="14.00" fill="#000000">collection_url</text>
<text text-anchor="start" x="470" y="-1015.3" font-family="Times,serif" font-size="14.00" fill="#000000">edit_resource_path</text>
<text text-anchor="start" x="470" y="-1001.3" font-family="Times,serif" font-size="14.00" fill="#000000">edit_resource_url</text>
<text text-anchor="start" x="470" y="-987.3" font-family="Times,serif" font-size="14.00" fill="#000000">new_resource_path</text>
<text text-anchor="start" x="470" y="-973.3" font-family="Times,serif" font-size="14.00" fill="#000000">new_resource_url</text>
<text text-anchor="start" x="470" y="-959.3" font-family="Times,serif" font-size="14.00" fill="#000000">resource_path</text>
<text text-anchor="start" x="470" y="-945.3" font-family="Times,serif" font-size="14.00" fill="#000000">collection_path</text>
<polyline fill="none" stroke="#000000" points="462,-938.5 586.8418,-938.5 "/>
<text text-anchor="start" x="470" y="-923.3" font-family="Times,serif" font-size="14.00" fill="#000000">_layout</text>
<text text-anchor="start" x="470" y="-909.3" font-family="Times,serif" font-size="14.00" fill="#000000">post_params</text>
</g>
<!-- ProfilesController -->
<g id="node10" class="node">
<title>ProfilesController</title>
<path fill="none" stroke="#000000" d="M12,-484.5C12,-484.5 112.8418,-484.5 112.8418,-484.5 118.8418,-484.5 124.8418,-490.5 124.8418,-496.5 124.8418,-496.5 124.8418,-700.5 124.8418,-700.5 124.8418,-706.5 118.8418,-712.5 112.8418,-712.5 112.8418,-712.5 12,-712.5 12,-712.5 6,-712.5 0,-706.5 0,-700.5 0,-700.5 0,-496.5 0,-496.5 0,-490.5 6,-484.5 12,-484.5"/>
<text text-anchor="middle" x="62.4209" y="-697.3" font-family="Times,serif" font-size="14.00" fill="#000000">ProfilesController</text>
<polyline fill="none" stroke="#000000" points="0,-690.5 124.8418,-690.5 "/>
<text text-anchor="start" x="8" y="-675.3" font-family="Times,serif" font-size="14.00" fill="#000000">edit</text>
<text text-anchor="start" x="8" y="-661.3" font-family="Times,serif" font-size="14.00" fill="#000000">resource</text>
<text text-anchor="start" x="8" y="-647.3" font-family="Times,serif" font-size="14.00" fill="#000000">update</text>
<polyline fill="none" stroke="#000000" points="0,-640.5 124.8418,-640.5 "/>
<text text-anchor="start" x="8" y="-625.3" font-family="Times,serif" font-size="14.00" fill="#000000">resource_url</text>
<text text-anchor="start" x="8" y="-611.3" font-family="Times,serif" font-size="14.00" fill="#000000">collection_url</text>
<text text-anchor="start" x="8" y="-597.3" font-family="Times,serif" font-size="14.00" fill="#000000">edit_resource_path</text>
<text text-anchor="start" x="8" y="-583.3" font-family="Times,serif" font-size="14.00" fill="#000000">edit_resource_url</text>
<text text-anchor="start" x="8" y="-569.3" font-family="Times,serif" font-size="14.00" fill="#000000">new_resource_path</text>
<text text-anchor="start" x="8" y="-555.3" font-family="Times,serif" font-size="14.00" fill="#000000">new_resource_url</text>
<text text-anchor="start" x="8" y="-541.3" font-family="Times,serif" font-size="14.00" fill="#000000">resource_path</text>
<text text-anchor="start" x="8" y="-527.3" font-family="Times,serif" font-size="14.00" fill="#000000">collection_path</text>
<polyline fill="none" stroke="#000000" points="0,-520.5 124.8418,-520.5 "/>
<text text-anchor="start" x="8" y="-505.3" font-family="Times,serif" font-size="14.00" fill="#000000">_layout</text>
<text text-anchor="start" x="8" y="-491.3" font-family="Times,serif" font-size="14.00" fill="#000000">user_parameters</text>
</g>
<!-- Representatives::ClassroomsController -->
<g id="node11" class="node">
<title>Representatives::ClassroomsController</title>
<path fill="none" stroke="#000000" d="M320,-638.5C320,-638.5 531.2969,-638.5 531.2969,-638.5 537.2969,-638.5 543.2969,-644.5 543.2969,-650.5 543.2969,-650.5 543.2969,-840.5 543.2969,-840.5 543.2969,-846.5 537.2969,-852.5 531.2969,-852.5 531.2969,-852.5 320,-852.5 320,-852.5 314,-852.5 308,-846.5 308,-840.5 308,-840.5 308,-650.5 308,-650.5 308,-644.5 314,-638.5 320,-638.5"/>
<text text-anchor="middle" x="425.6484" y="-837.3" font-family="Times,serif" font-size="14.00" fill="#000000">Representatives::ClassroomsController</text>
<polyline fill="none" stroke="#000000" points="308,-830.5 543.2969,-830.5 "/>
<text text-anchor="start" x="316" y="-815.3" font-family="Times,serif" font-size="14.00" fill="#000000">index</text>
<text text-anchor="start" x="316" y="-801.3" font-family="Times,serif" font-size="14.00" fill="#000000">members</text>
<polyline fill="none" stroke="#000000" points="308,-794.5 543.2969,-794.5 "/>
<text text-anchor="start" x="316" y="-779.3" font-family="Times,serif" font-size="14.00" fill="#000000">resource_url</text>
<text text-anchor="start" x="316" y="-765.3" font-family="Times,serif" font-size="14.00" fill="#000000">collection_url</text>
<text text-anchor="start" x="316" y="-751.3" font-family="Times,serif" font-size="14.00" fill="#000000">edit_resource_path</text>
<text text-anchor="start" x="316" y="-737.3" font-family="Times,serif" font-size="14.00" fill="#000000">edit_resource_url</text>
<text text-anchor="start" x="316" y="-723.3" font-family="Times,serif" font-size="14.00" fill="#000000">new_resource_path</text>
<text text-anchor="start" x="316" y="-709.3" font-family="Times,serif" font-size="14.00" fill="#000000">new_resource_url</text>
<text text-anchor="start" x="316" y="-695.3" font-family="Times,serif" font-size="14.00" fill="#000000">resource_path</text>
<text text-anchor="start" x="316" y="-681.3" font-family="Times,serif" font-size="14.00" fill="#000000">collection_path</text>
<polyline fill="none" stroke="#000000" points="308,-674.5 543.2969,-674.5 "/>
<text text-anchor="start" x="316" y="-659.3" font-family="Times,serif" font-size="14.00" fill="#000000">_layout</text>
<text text-anchor="start" x="316" y="-645.3" font-family="Times,serif" font-size="14.00" fill="#000000">classroom_params</text>
</g>
<!-- Students::DashboardController -->
<g id="node12" class="node">
<title>Students::DashboardController</title>
<path fill="none" stroke="#000000" d="M100,-110.5C100,-110.5 266.2002,-110.5 266.2002,-110.5 272.2002,-110.5 278.2002,-116.5 278.2002,-122.5 278.2002,-122.5 278.2002,-284.5 278.2002,-284.5 278.2002,-290.5 272.2002,-296.5 266.2002,-296.5 266.2002,-296.5 100,-296.5 100,-296.5 94,-296.5 88,-290.5 88,-284.5 88,-284.5 88,-122.5 88,-122.5 88,-116.5 94,-110.5 100,-110.5"/>
<text text-anchor="middle" x="183.1001" y="-281.3" font-family="Times,serif" font-size="14.00" fill="#000000">Students::DashboardController</text>
<polyline fill="none" stroke="#000000" points="88,-274.5 278.2002,-274.5 "/>
<text text-anchor="start" x="96" y="-259.3" font-family="Times,serif" font-size="14.00" fill="#000000">index</text>
<polyline fill="none" stroke="#000000" points="88,-252.5 278.2002,-252.5 "/>
<text text-anchor="start" x="96" y="-237.3" font-family="Times,serif" font-size="14.00" fill="#000000">resource_url</text>
<text text-anchor="start" x="96" y="-223.3" font-family="Times,serif" font-size="14.00" fill="#000000">collection_url</text>
<text text-anchor="start" x="96" y="-209.3" font-family="Times,serif" font-size="14.00" fill="#000000">edit_resource_path</text>
<text text-anchor="start" x="96" y="-195.3" font-family="Times,serif" font-size="14.00" fill="#000000">edit_resource_url</text>
<text text-anchor="start" x="96" y="-181.3" font-family="Times,serif" font-size="14.00" fill="#000000">new_resource_path</text>
<text text-anchor="start" x="96" y="-167.3" font-family="Times,serif" font-size="14.00" fill="#000000">new_resource_url</text>
<text text-anchor="start" x="96" y="-153.3" font-family="Times,serif" font-size="14.00" fill="#000000">resource_path</text>
<text text-anchor="start" x="96" y="-139.3" font-family="Times,serif" font-size="14.00" fill="#000000">collection_path</text>
<polyline fill="none" stroke="#000000" points="88,-132.5 278.2002,-132.5 "/>
<text text-anchor="start" x="96" y="-117.3" font-family="Times,serif" font-size="14.00" fill="#000000">_layout</text>
</g>
<!-- Teachers::ClassroomsController -->
<g id="node13" class="node">
<title>Teachers::ClassroomsController</title>
<path fill="none" stroke="#000000" d="M364,-330.5C364,-330.5 536.2021,-330.5 536.2021,-330.5 542.2021,-330.5 548.2021,-336.5 548.2021,-342.5 548.2021,-342.5 548.2021,-588.5 548.2021,-588.5 548.2021,-594.5 542.2021,-600.5 536.2021,-600.5 536.2021,-600.5 364,-600.5 364,-600.5 358,-600.5 352,-594.5 352,-588.5 352,-588.5 352,-342.5 352,-342.5 352,-336.5 358,-330.5 364,-330.5"/>
<text text-anchor="middle" x="450.1011" y="-585.3" font-family="Times,serif" font-size="14.00" fill="#000000">Teachers::ClassroomsController</text>
<polyline fill="none" stroke="#000000" points="352,-578.5 548.2021,-578.5 "/>
<text text-anchor="start" x="360" y="-563.3" font-family="Times,serif" font-size="14.00" fill="#000000">create</text>
<text text-anchor="start" x="360" y="-549.3" font-family="Times,serif" font-size="14.00" fill="#000000">index</text>
<text text-anchor="start" x="360" y="-535.3" font-family="Times,serif" font-size="14.00" fill="#000000">members</text>
<text text-anchor="start" x="360" y="-521.3" font-family="Times,serif" font-size="14.00" fill="#000000">representative_field</text>
<text text-anchor="start" x="360" y="-507.3" font-family="Times,serif" font-size="14.00" fill="#000000">subject_field</text>
<text text-anchor="start" x="360" y="-493.3" font-family="Times,serif" font-size="14.00" fill="#000000">substitute_representative_field</text>
<polyline fill="none" stroke="#000000" points="352,-486.5 548.2021,-486.5 "/>
<text text-anchor="start" x="360" y="-471.3" font-family="Times,serif" font-size="14.00" fill="#000000">resource_url</text>
<text text-anchor="start" x="360" y="-457.3" font-family="Times,serif" font-size="14.00" fill="#000000">collection_url</text>
<text text-anchor="start" x="360" y="-443.3" font-family="Times,serif" font-size="14.00" fill="#000000">edit_resource_path</text>
<text text-anchor="start" x="360" y="-429.3" font-family="Times,serif" font-size="14.00" fill="#000000">edit_resource_url</text>
<text text-anchor="start" x="360" y="-415.3" font-family="Times,serif" font-size="14.00" fill="#000000">new_resource_path</text>
<text text-anchor="start" x="360" y="-401.3" font-family="Times,serif" font-size="14.00" fill="#000000">new_resource_url</text>
<text text-anchor="start" x="360" y="-387.3" font-family="Times,serif" font-size="14.00" fill="#000000">resource_path</text>
<text text-anchor="start" x="360" y="-373.3" font-family="Times,serif" font-size="14.00" fill="#000000">collection_path</text>
<polyline fill="none" stroke="#000000" points="352,-366.5 548.2021,-366.5 "/>
<text text-anchor="start" x="360" y="-351.3" font-family="Times,serif" font-size="14.00" fill="#000000">_layout</text>
<text text-anchor="start" x="360" y="-337.3" font-family="Times,serif" font-size="14.00" fill="#000000">classroom_params</text>
</g>
<!-- Teachers::CoursesController -->
<g id="node14" class="node">
<title>Teachers::CoursesController</title>
<path fill="none" stroke="#000000" d="M870,-726.5C870,-726.5 1021.9746,-726.5 1021.9746,-726.5 1027.9746,-726.5 1033.9746,-732.5 1033.9746,-738.5 1033.9746,-738.5 1033.9746,-928.5 1033.9746,-928.5 1033.9746,-934.5 1027.9746,-940.5 1021.9746,-940.5 1021.9746,-940.5 870,-940.5 870,-940.5 864,-940.5 858,-934.5 858,-928.5 858,-928.5 858,-738.5 858,-738.5 858,-732.5 864,-726.5 870,-726.5"/>
<text text-anchor="middle" x="945.9873" y="-925.3" font-family="Times,serif" font-size="14.00" fill="#000000">Teachers::CoursesController</text>
<polyline fill="none" stroke="#000000" points="858,-918.5 1033.9746,-918.5 "/>
<text text-anchor="start" x="866" y="-903.3" font-family="Times,serif" font-size="14.00" fill="#000000">create</text>
<text text-anchor="start" x="866" y="-889.3" font-family="Times,serif" font-size="14.00" fill="#000000">index</text>
<polyline fill="none" stroke="#000000" points="858,-882.5 1033.9746,-882.5 "/>
<text text-anchor="start" x="866" y="-867.3" font-family="Times,serif" font-size="14.00" fill="#000000">resource_url</text>
<text text-anchor="start" x="866" y="-853.3" font-family="Times,serif" font-size="14.00" fill="#000000">collection_url</text>
<text text-anchor="start" x="866" y="-839.3" font-family="Times,serif" font-size="14.00" fill="#000000">edit_resource_path</text>
<text text-anchor="start" x="866" y="-825.3" font-family="Times,serif" font-size="14.00" fill="#000000">edit_resource_url</text>
<text text-anchor="start" x="866" y="-811.3" font-family="Times,serif" font-size="14.00" fill="#000000">new_resource_path</text>
<text text-anchor="start" x="866" y="-797.3" font-family="Times,serif" font-size="14.00" fill="#000000">new_resource_url</text>
<text text-anchor="start" x="866" y="-783.3" font-family="Times,serif" font-size="14.00" fill="#000000">resource_path</text>
<text text-anchor="start" x="866" y="-769.3" font-family="Times,serif" font-size="14.00" fill="#000000">collection_path</text>
<polyline fill="none" stroke="#000000" points="858,-762.5 1033.9746,-762.5 "/>
<text text-anchor="start" x="866" y="-747.3" font-family="Times,serif" font-size="14.00" fill="#000000">_layout</text>
<text text-anchor="start" x="866" y="-733.3" font-family="Times,serif" font-size="14.00" fill="#000000">course_params</text>
</g>
<!-- Teachers::DashboardController -->
<g id="node15" class="node">
<title>Teachers::DashboardController</title>
<path fill="none" stroke="#000000" d="M474,-110.5C474,-110.5 641.5127,-110.5 641.5127,-110.5 647.5127,-110.5 653.5127,-116.5 653.5127,-122.5 653.5127,-122.5 653.5127,-284.5 653.5127,-284.5 653.5127,-290.5 647.5127,-296.5 641.5127,-296.5 641.5127,-296.5 474,-296.5 474,-296.5 468,-296.5 462,-290.5 462,-284.5 462,-284.5 462,-122.5 462,-122.5 462,-116.5 468,-110.5 474,-110.5"/>
<text text-anchor="middle" x="557.7563" y="-281.3" font-family="Times,serif" font-size="14.00" fill="#000000">Teachers::DashboardController</text>
<polyline fill="none" stroke="#000000" points="462,-274.5 653.5127,-274.5 "/>
<text text-anchor="start" x="470" y="-259.3" font-family="Times,serif" font-size="14.00" fill="#000000">index</text>
<polyline fill="none" stroke="#000000" points="462,-252.5 653.5127,-252.5 "/>
<text text-anchor="start" x="470" y="-237.3" font-family="Times,serif" font-size="14.00" fill="#000000">resource_url</text>
<text text-anchor="start" x="470" y="-223.3" font-family="Times,serif" font-size="14.00" fill="#000000">collection_url</text>
<text text-anchor="start" x="470" y="-209.3" font-family="Times,serif" font-size="14.00" fill="#000000">edit_resource_path</text>
<text text-anchor="start" x="470" y="-195.3" font-family="Times,serif" font-size="14.00" fill="#000000">edit_resource_url</text>
<text text-anchor="start" x="470" y="-181.3" font-family="Times,serif" font-size="14.00" fill="#000000">new_resource_path</text>
<text text-anchor="start" x="470" y="-167.3" font-family="Times,serif" font-size="14.00" fill="#000000">new_resource_url</text>
<text text-anchor="start" x="470" y="-153.3" font-family="Times,serif" font-size="14.00" fill="#000000">resource_path</text>
<text text-anchor="start" x="470" y="-139.3" font-family="Times,serif" font-size="14.00" fill="#000000">collection_path</text>
<polyline fill="none" stroke="#000000" points="462,-132.5 653.5127,-132.5 "/>
<text text-anchor="start" x="470" y="-117.3" font-family="Times,serif" font-size="14.00" fill="#000000">_layout</text>
</g>
<!-- Teachers::SubjectsController -->
<g id="node16" class="node">
<title>Teachers::SubjectsController</title>
<path fill="none" stroke="#000000" d="M870,-462.5C870,-462.5 1024.3057,-462.5 1024.3057,-462.5 1030.3057,-462.5 1036.3057,-468.5 1036.3057,-474.5 1036.3057,-474.5 1036.3057,-664.5 1036.3057,-664.5 1036.3057,-670.5 1030.3057,-676.5 1024.3057,-676.5 1024.3057,-676.5 870,-676.5 870,-676.5 864,-676.5 858,-670.5 858,-664.5 858,-664.5 858,-474.5 858,-474.5 858,-468.5 864,-462.5 870,-462.5"/>
<text text-anchor="middle" x="947.1528" y="-661.3" font-family="Times,serif" font-size="14.00" fill="#000000">Teachers::SubjectsController</text>
<polyline fill="none" stroke="#000000" points="858,-654.5 1036.3057,-654.5 "/>
<text text-anchor="start" x="866" y="-639.3" font-family="Times,serif" font-size="14.00" fill="#000000">create</text>
<text text-anchor="start" x="866" y="-625.3" font-family="Times,serif" font-size="14.00" fill="#000000">index</text>
<polyline fill="none" stroke="#000000" points="858,-618.5 1036.3057,-618.5 "/>
<text text-anchor="start" x="866" y="-603.3" font-family="Times,serif" font-size="14.00" fill="#000000">resource_url</text>
<text text-anchor="start" x="866" y="-589.3" font-family="Times,serif" font-size="14.00" fill="#000000">collection_url</text>
<text text-anchor="start" x="866" y="-575.3" font-family="Times,serif" font-size="14.00" fill="#000000">edit_resource_path</text>
<text text-anchor="start" x="866" y="-561.3" font-family="Times,serif" font-size="14.00" fill="#000000">edit_resource_url</text>
<text text-anchor="start" x="866" y="-547.3" font-family="Times,serif" font-size="14.00" fill="#000000">new_resource_path</text>
<text text-anchor="start" x="866" y="-533.3" font-family="Times,serif" font-size="14.00" fill="#000000">new_resource_url</text>
<text text-anchor="start" x="866" y="-519.3" font-family="Times,serif" font-size="14.00" fill="#000000">resource_path</text>
<text text-anchor="start" x="866" y="-505.3" font-family="Times,serif" font-size="14.00" fill="#000000">collection_path</text>
<polyline fill="none" stroke="#000000" points="858,-498.5 1036.3057,-498.5 "/>
<text text-anchor="start" x="866" y="-483.3" font-family="Times,serif" font-size="14.00" fill="#000000">_layout</text>
<text text-anchor="start" x="866" y="-469.3" font-family="Times,serif" font-size="14.00" fill="#000000">subject_params</text>
</g>
<!-- Teachers::UsersController -->
<g id="node17" class="node">
<title>Teachers::UsersController</title>
<path fill="none" stroke="#000000" d="M606,-352.5C606,-352.5 744.7471,-352.5 744.7471,-352.5 750.7471,-352.5 756.7471,-358.5 756.7471,-364.5 756.7471,-364.5 756.7471,-610.5 756.7471,-610.5 756.7471,-616.5 750.7471,-622.5 744.7471,-622.5 744.7471,-622.5 606,-622.5 606,-622.5 600,-622.5 594,-616.5 594,-610.5 594,-610.5 594,-364.5 594,-364.5 594,-358.5 600,-352.5 606,-352.5"/>
<text text-anchor="middle" x="675.3735" y="-607.3" font-family="Times,serif" font-size="14.00" fill="#000000">Teachers::UsersController</text>
<polyline fill="none" stroke="#000000" points="594,-600.5 756.7471,-600.5 "/>
<text text-anchor="start" x="602" y="-585.3" font-family="Times,serif" font-size="14.00" fill="#000000">create</text>
<text text-anchor="start" x="602" y="-571.3" font-family="Times,serif" font-size="14.00" fill="#000000">edit</text>
<text text-anchor="start" x="602" y="-557.3" font-family="Times,serif" font-size="14.00" fill="#000000">index</text>
<text text-anchor="start" x="602" y="-543.3" font-family="Times,serif" font-size="14.00" fill="#000000">new</text>
<text text-anchor="start" x="602" y="-529.3" font-family="Times,serif" font-size="14.00" fill="#000000">resend_invitation</text>
<text text-anchor="start" x="602" y="-515.3" font-family="Times,serif" font-size="14.00" fill="#000000">search</text>
<polyline fill="none" stroke="#000000" points="594,-508.5 756.7471,-508.5 "/>
<text text-anchor="start" x="602" y="-493.3" font-family="Times,serif" font-size="14.00" fill="#000000">resource_url</text>
<text text-anchor="start" x="602" y="-479.3" font-family="Times,serif" font-size="14.00" fill="#000000">collection_url</text>
<text text-anchor="start" x="602" y="-465.3" font-family="Times,serif" font-size="14.00" fill="#000000">edit_resource_path</text>
<text text-anchor="start" x="602" y="-451.3" font-family="Times,serif" font-size="14.00" fill="#000000">edit_resource_url</text>
<text text-anchor="start" x="602" y="-437.3" font-family="Times,serif" font-size="14.00" fill="#000000">new_resource_path</text>
<text text-anchor="start" x="602" y="-423.3" font-family="Times,serif" font-size="14.00" fill="#000000">new_resource_url</text>
<text text-anchor="start" x="602" y="-409.3" font-family="Times,serif" font-size="14.00" fill="#000000">resource_path</text>
<text text-anchor="start" x="602" y="-395.3" font-family="Times,serif" font-size="14.00" fill="#000000">collection_path</text>
<polyline fill="none" stroke="#000000" points="594,-388.5 756.7471,-388.5 "/>
<text text-anchor="start" x="602" y="-373.3" font-family="Times,serif" font-size="14.00" fill="#000000">_layout</text>
<text text-anchor="start" x="602" y="-359.3" font-family="Times,serif" font-size="14.00" fill="#000000">user_params</text>
</g>
</g>
</svg>
