<?xml version="1.0" encoding="UTF-8" standalone="no"?>
<!DOCTYPE svg PUBLIC "-//W3C//DTD SVG 1.1//EN"
 "http://www.w3.org/Graphics/SVG/1.1/DTD/svg11.dtd">
<!-- Generated by graphviz version 2.40.1 (20161225.0304)
 -->
<!-- Title: models_diagram Pages: 1 -->
<svg width="918pt" height="369pt"
 viewBox="0.00 0.00 918.20 369.00" xmlns="http://www.w3.org/2000/svg" xmlns:xlink="http://www.w3.org/1999/xlink">
<g id="graph0" class="graph" transform="scale(1 1) rotate(0) translate(4 365)">
<title>models_diagram</title>
<polygon fill="transparent" stroke="transparent" points="-4,4 -4,-365 914.1951,-365 914.1951,4 -4,4"/>
<!-- _diagram_info -->
<g id="node1" class="node">
<title>_diagram_info</title>
<text text-anchor="start" x="8" y="-346.6" font-family="Times,serif" font-size="13.00" fill="#000000">Models diagram</text>
<text text-anchor="start" x="8" y="-333.6" font-family="Times,serif" font-size="13.00" fill="#000000">Date: May 26 2017 &#45; 13:40</text>
<text text-anchor="start" x="8" y="-320.6" font-family="Times,serif" font-size="13.00" fill="#000000">Migration version: 20170523001804</text>
<text text-anchor="start" x="8" y="-307.6" font-family="Times,serif" font-size="13.00" fill="#000000">Generated by RailRoady 1.5.2</text>
<text text-anchor="start" x="8" y="-294.6" font-family="Times,serif" font-size="13.00" fill="#000000">http://railroady.prestonlee.com</text>
</g>
<!-- Ability -->
<g id="node2" class="node">
<title>Ability</title>
<polygon fill="none" stroke="#000000" points="281.3577,-342.5 226.0178,-342.5 226.0178,-306.5 281.3577,-306.5 281.3577,-342.5"/>
<text text-anchor="middle" x="253.6877" y="-320.3" font-family="Times,serif" font-size="14.00" fill="#000000">Ability</text>
</g>
<!-- Address -->
<g id="node3" class="node">
<title>Address</title>
<ellipse fill="none" stroke="#000000" cx="170.6877" cy="-90" rx="39.18" ry="18"/>
<text text-anchor="middle" x="170.6877" y="-85.8" font-family="Times,serif" font-size="14.00" fill="#000000">Address</text>
</g>
<!-- City -->
<g id="node4" class="node">
<title>City</title>
<ellipse fill="none" stroke="#000000" cx="130.6877" cy="-162" rx="27" ry="18"/>
<text text-anchor="middle" x="130.6877" y="-157.8" font-family="Times,serif" font-size="14.00" fill="#000000">City</text>
</g>
<!-- City&#45;&gt;Address -->
<g id="edge1" class="edge">
<title>City&#45;&gt;Address</title>
<path fill="none" stroke="#beb3db" d="M144.2041,-137.6706C147.9913,-130.8537 152.1262,-123.4108 155.9789,-116.4759"/>
<ellipse fill="none" stroke="#beb3db" cx="142.1098" cy="-141.4404" rx="4" ry="4"/>
<polygon fill="#beb3db" stroke="#beb3db" points="156.142,-116.1823 164.9322,-109.6261 158.5702,-111.8115 160.9985,-107.4407 160.9985,-107.4407 160.9985,-107.4407 158.5702,-111.8115 157.0648,-105.2553 156.142,-116.1823 156.142,-116.1823"/>
</g>
<!-- Classroom -->
<g id="node5" class="node">
<title>Classroom</title>
<ellipse fill="none" stroke="#000000" cx="365.6877" cy="-234" rx="47.8754" ry="18"/>
<text text-anchor="middle" x="365.6877" y="-229.8" font-family="Times,serif" font-size="14.00" fill="#000000">Classroom</text>
</g>
<!-- ClassroomUser -->
<g id="node8" class="node">
<title>ClassroomUser</title>
<ellipse fill="none" stroke="#000000" cx="437.6877" cy="-90" rx="64.7718" ry="18"/>
<text text-anchor="middle" x="437.6877" y="-85.8" font-family="Times,serif" font-size="14.00" fill="#000000">ClassroomUser</text>
</g>
<!-- Classroom&#45;&gt;ClassroomUser -->
<g id="edge2" class="edge">
<title>Classroom&#45;&gt;ClassroomUser</title>
<path fill="none" stroke="#72265f" d="M378.2946,-208.7863C391.1118,-183.1518 410.9067,-143.5621 424.0749,-117.2256"/>
<ellipse fill="none" stroke="#72265f" cx="376.4499" cy="-212.4757" rx="4" ry="4"/>
<polygon fill="#72265f" stroke="#72265f" points="424.1292,-117.117 432.6263,-110.1852 426.3653,-112.6449 428.6014,-108.1727 428.6014,-108.1727 428.6014,-108.1727 426.3653,-112.6449 424.5765,-106.1602 424.1292,-117.117 424.1292,-117.117"/>
</g>
<!-- Post -->
<g id="node13" class="node">
<title>Post</title>
<ellipse fill="none" stroke="#000000" cx="291.6877" cy="-162" rx="27" ry="18"/>
<text text-anchor="middle" x="291.6877" y="-157.8" font-family="Times,serif" font-size="14.00" fill="#000000">Post</text>
</g>
<!-- Classroom&#45;&gt;Post -->
<g id="edge4" class="edge">
<title>Classroom&#45;&gt;Post</title>
<path fill="none" stroke="#d77e3d" d="M342.349,-211.292C333.449,-202.6325 323.3221,-192.7794 314.4741,-184.1706"/>
<ellipse fill="none" stroke="#d77e3d" cx="345.2839" cy="-214.1476" rx="4" ry="4"/>
<polygon fill="#d77e3d" stroke="#d77e3d" points="314.2581,-183.9603 310.2289,-173.7615 310.6745,-180.4736 307.0908,-176.9868 307.0908,-176.9868 307.0908,-176.9868 310.6745,-180.4736 303.9527,-180.212 314.2581,-183.9603 314.2581,-183.9603"/>
</g>
<!-- User -->
<g id="node18" class="node">
<title>User</title>
<ellipse fill="none" stroke="#000000" cx="547.6877" cy="-162" rx="27" ry="18"/>
<text text-anchor="middle" x="547.6877" y="-157.8" font-family="Times,serif" font-size="14.00" fill="#000000">User</text>
</g>
<!-- Classroom&#45;&gt;User -->
<g id="edge3" class="edge">
<title>Classroom&#45;&gt;User</title>
<path fill="none" stroke="#844c1f" d="M408.404,-217.1012C440.9248,-204.2359 485.0266,-186.789 514.8233,-175.0013"/>
<polygon fill="#844c1f" stroke="#844c1f" points="408.3682,-217.1154 397.4139,-216.6096 403.7188,-218.9547 399.0693,-220.7941 399.0693,-220.7941 399.0693,-220.7941 403.7188,-218.9547 400.7248,-224.9786 408.3682,-217.1154 408.3682,-217.1154"/>
<polygon fill="#844c1f" stroke="#844c1f" points="515.0436,-174.9142 525.9978,-175.42 519.693,-173.0749 524.3424,-171.2355 524.3424,-171.2355 524.3424,-171.2355 519.693,-173.0749 522.687,-167.0511 515.0436,-174.9142 515.0436,-174.9142"/>
</g>
<!-- ClassroomChat -->
<g id="node6" class="node">
<title>ClassroomChat</title>
<ellipse fill="none" stroke="#000000" cx="740.6877" cy="-324.5" rx="64.7805" ry="18"/>
<text text-anchor="middle" x="740.6877" y="-320.3" font-family="Times,serif" font-size="14.00" fill="#000000">ClassroomChat</text>
</g>
<!-- ClassroomTime -->
<g id="node7" class="node">
<title>ClassroomTime</title>
<ellipse fill="none" stroke="#000000" cx="365.6877" cy="-324.5" rx="66.0885" ry="18"/>
<text text-anchor="middle" x="365.6877" y="-320.3" font-family="Times,serif" font-size="14.00" fill="#000000">ClassroomTime</text>
</g>
<!-- ClassroomTime&#45;&gt;Classroom -->
<g id="edge5" class="edge">
<title>ClassroomTime&#45;&gt;Classroom</title>
<path fill="none" stroke="#d256b2" d="M365.6877,-297.9687C365.6877,-286.8402 365.6877,-273.878 365.6877,-262.5429"/>
<ellipse fill="none" stroke="#d256b2" cx="365.6878" cy="-302.186" rx="4" ry="4"/>
<polygon fill="#d256b2" stroke="#d256b2" points="365.6878,-262.2868 370.1877,-252.2867 365.6878,-257.2868 365.6877,-252.2868 365.6877,-252.2868 365.6877,-252.2868 365.6878,-257.2868 361.1877,-252.2868 365.6878,-262.2868 365.6878,-262.2868"/>
</g>
<!-- Comment -->
<g id="node9" class="node">
<title>Comment</title>
<ellipse fill="none" stroke="#000000" cx="291.6877" cy="-90" rx="44.9768" ry="18"/>
<text text-anchor="middle" x="291.6877" y="-85.8" font-family="Times,serif" font-size="14.00" fill="#000000">Comment</text>
</g>
<!-- Course -->
<g id="node10" class="node">
<title>Course</title>
<ellipse fill="none" stroke="#000000" cx="610.6877" cy="-90" rx="35.3216" ry="18"/>
<text text-anchor="middle" x="610.6877" y="-85.8" font-family="Times,serif" font-size="14.00" fill="#000000">Course</text>
</g>
<!-- Student -->
<g id="node16" class="node">
<title>Student</title>
<ellipse fill="none" stroke="#000000" cx="610.6877" cy="-18" rx="37.2594" ry="18"/>
<text text-anchor="middle" x="610.6877" y="-13.8" font-family="Times,serif" font-size="14.00" fill="#000000">Student</text>
</g>
<!-- Course&#45;&gt;Student -->
<g id="edge7" class="edge">
<title>Course&#45;&gt;Student</title>
<path fill="none" stroke="#dbe9f6" d="M610.6877,-63.8144C610.6877,-58.2775 610.6877,-52.4053 610.6877,-46.7785"/>
<ellipse fill="none" stroke="#dbe9f6" cx="610.6878" cy="-67.8314" rx="4" ry="4"/>
<polygon fill="#dbe9f6" stroke="#dbe9f6" points="610.6878,-46.4133 615.1877,-36.4132 610.6878,-41.4133 610.6877,-36.4133 610.6877,-36.4133 610.6877,-36.4133 610.6878,-41.4133 606.1877,-36.4133 610.6878,-46.4133 610.6878,-46.4133"/>
</g>
<!-- Subject -->
<g id="node17" class="node">
<title>Subject</title>
<ellipse fill="none" stroke="#000000" cx="726.6877" cy="-18" rx="36.7663" ry="18"/>
<text text-anchor="middle" x="726.6877" y="-13.8" font-family="Times,serif" font-size="14.00" fill="#000000">Subject</text>
</g>
<!-- Course&#45;&gt;Subject -->
<g id="edge6" class="edge">
<title>Course&#45;&gt;Subject</title>
<path fill="none" stroke="#f0f57a" d="M640.3038,-71.6176C657.0883,-61.1996 678.0818,-48.1692 695.17,-37.5627"/>
<ellipse fill="none" stroke="#f0f57a" cx="636.7277" cy="-73.8373" rx="4" ry="4"/>
<polygon fill="#f0f57a" stroke="#f0f57a" points="695.2107,-37.5375 706.0802,-36.0873 699.4589,-34.9007 703.7071,-32.2639 703.7071,-32.2639 703.7071,-32.2639 699.4589,-34.9007 701.3339,-28.4405 695.2107,-37.5375 695.2107,-37.5375"/>
</g>
<!-- Course&#45;&gt;User -->
<g id="edge8" class="edge">
<title>Course&#45;&gt;User</title>
<path fill="none" stroke="#194121" d="M594.9685,-115.3722C588.1228,-123.6896 580.0284,-132.8384 572.4408,-140.8127"/>
<polygon fill="#194121" stroke="#194121" points="595.091,-115.2188 604.8488,-110.2152 598.2121,-111.3125 601.3332,-107.4062 601.3332,-107.4062 601.3332,-107.4062 598.2121,-111.3125 597.8175,-104.5973 595.091,-115.2188 595.091,-115.2188"/>
<polygon fill="#194121" stroke="#194121" points="572.2866,-140.9702 562.0764,-144.9704 568.7897,-144.5439 565.2928,-148.1177 565.2928,-148.1177 565.2928,-148.1177 568.7897,-144.5439 568.5092,-151.2649 572.2866,-140.9702 572.2866,-140.9702"/>
</g>
<!-- Gender -->
<g id="node11" class="node">
<title>Gender</title>
<ellipse fill="none" stroke="#000000" cx="611.6877" cy="-234" rx="36.2645" ry="18"/>
<text text-anchor="middle" x="611.6877" y="-229.8" font-family="Times,serif" font-size="14.00" fill="#000000">Gender</text>
</g>
<!-- Gender&#45;&gt;User -->
<g id="edge9" class="edge">
<title>Gender&#45;&gt;User</title>
<path fill="none" stroke="#b08ef6" d="M591.3526,-211.1229C583.9958,-202.8465 575.686,-193.498 568.3052,-185.1946"/>
<ellipse fill="none" stroke="#b08ef6" cx="594.1865" cy="-214.3111" rx="4" ry="4"/>
<polygon fill="#b08ef6" stroke="#b08ef6" points="568.2185,-185.097 564.9381,-174.6333 564.8966,-181.36 561.5748,-177.6229 561.5748,-177.6229 561.5748,-177.6229 564.8966,-181.36 558.2114,-180.6126 568.2185,-185.097 568.2185,-185.097"/>
</g>
<!-- Institution -->
<g id="node12" class="node">
<title>Institution</title>
<ellipse fill="none" stroke="#000000" cx="611.6877" cy="-324.5" rx="46.4304" ry="18"/>
<text text-anchor="middle" x="611.6877" y="-320.3" font-family="Times,serif" font-size="14.00" fill="#000000">Institution</text>
</g>
<!-- Institution&#45;&gt;Address -->
<g id="edge10" class="edge">
<title>Institution&#45;&gt;Address</title>
<path fill="none" stroke="#00ccd3" d="M563.7751,-313.4829C529.5759,-305.8128 482.4317,-295.6321 440.6877,-288 388.5017,-278.4587 243.2269,-288.4575 204.6877,-252 167.5795,-216.8961 165.611,-152.4394 167.8746,-116.315"/>
<ellipse fill="none" stroke="#00ccd3" cx="567.8388" cy="-314.3979" rx="4" ry="4"/>
<ellipse fill="#00ccd3" stroke="#00ccd3" cx="168.1846" cy="-112.1916" rx="4" ry="4"/>
</g>
<!-- Institution&#45;&gt;Classroom -->
<g id="edge15" class="edge">
<title>Institution&#45;&gt;Classroom</title>
<path fill="none" stroke="#9e20d1" d="M570.04,-309.1784C525.4786,-292.7848 455.0898,-266.8898 409.6557,-250.1752"/>
<ellipse fill="none" stroke="#9e20d1" cx="573.9867" cy="-310.6303" rx="4" ry="4"/>
<polygon fill="#9e20d1" stroke="#9e20d1" points="409.4626,-250.1042 401.6313,-242.4283 404.7701,-248.3779 400.0776,-246.6515 400.0776,-246.6515 400.0776,-246.6515 404.7701,-248.3779 398.5239,-250.8748 409.4626,-250.1042 409.4626,-250.1042"/>
</g>
<!-- Institution&#45;&gt;Course -->
<g id="edge11" class="edge">
<title>Institution&#45;&gt;Course</title>
<path fill="none" stroke="#94eed0" d="M631.1476,-300.748C640.879,-287.3206 651.6376,-269.7124 656.6877,-252 670.3317,-204.1462 645.5009,-148.3165 627.3238,-116.2684"/>
<ellipse fill="none" stroke="#94eed0" cx="628.5867" cy="-304.1659" rx="4" ry="4"/>
<polygon fill="#94eed0" stroke="#94eed0" points="627.2411,-116.1275 626.0595,-105.2255 624.7099,-111.8155 622.1787,-107.5035 622.1787,-107.5035 622.1787,-107.5035 624.7099,-111.8155 618.2979,-109.7816 627.2411,-116.1275 627.2411,-116.1275"/>
</g>
<!-- Institution&#45;&gt;Student -->
<g id="edge13" class="edge">
<title>Institution&#45;&gt;Student</title>
<path fill="none" stroke="#03106d" d="M631.1476,-300.748C640.879,-287.3206 651.6376,-269.7124 656.6877,-252 666.5961,-217.2482 691.4359,-173.0488 654.6877,-72 650.6374,-60.8624 643.24,-50.3386 635.6519,-41.5908"/>
<ellipse fill="none" stroke="#03106d" cx="628.5867" cy="-304.1659" rx="4" ry="4"/>
<polygon fill="#03106d" stroke="#03106d" points="635.507,-41.4339 632.0249,-31.0356 632.1135,-37.7618 628.72,-34.0897 628.72,-34.0897 628.72,-34.0897 632.1135,-37.7618 625.4151,-37.1438 635.507,-41.4339 635.507,-41.4339"/>
</g>
<!-- Institution&#45;&gt;Subject -->
<g id="edge12" class="edge">
<title>Institution&#45;&gt;Subject</title>
<path fill="none" stroke="#ad4edf" d="M635.1231,-301.8568C647.7083,-288.4599 662.4841,-270.5253 671.6877,-252 705.9812,-182.973 719.4197,-91.7487 724.2454,-46.2847"/>
<ellipse fill="none" stroke="#ad4edf" cx="632.2958" cy="-304.7959" rx="4" ry="4"/>
<polygon fill="#ad4edf" stroke="#ad4edf" points="724.2519,-46.218 729.7239,-36.715 724.7491,-41.2428 725.2462,-36.2676 725.2462,-36.2676 725.2462,-36.2676 724.7491,-41.2428 720.7685,-35.8202 724.2519,-46.218 724.2519,-46.218"/>
</g>
<!-- Institution&#45;&gt;User -->
<g id="edge14" class="edge">
<title>Institution&#45;&gt;User</title>
<path fill="none" stroke="#724ade" d="M593.6659,-300.2558C584.3605,-286.6826 573.5498,-269.0923 566.6877,-252 558.6803,-232.0548 553.8409,-208.2061 551.0517,-190.0709"/>
<ellipse fill="none" stroke="#724ade" cx="596.0706" cy="-303.6878" rx="4" ry="4"/>
<polygon fill="#724ade" stroke="#724ade" points="551.0455,-190.0265 554.0931,-179.4926 550.3417,-185.0763 549.6379,-180.126 549.6379,-180.126 549.6379,-180.126 550.3417,-185.0763 545.1827,-180.7594 551.0455,-190.0265 551.0455,-190.0265"/>
</g>
<!-- Post&#45;&gt;Comment -->
<g id="edge16" class="edge">
<title>Post&#45;&gt;Comment</title>
<path fill="none" stroke="#9865b0" d="M291.6877,-135.8144C291.6877,-130.2775 291.6877,-124.4053 291.6877,-118.7785"/>
<ellipse fill="none" stroke="#9865b0" cx="291.6878" cy="-139.8314" rx="4" ry="4"/>
<polygon fill="#9865b0" stroke="#9865b0" points="291.6878,-118.4133 296.1877,-108.4132 291.6878,-113.4133 291.6877,-108.4133 291.6877,-108.4133 291.6877,-108.4133 291.6878,-113.4133 287.1877,-108.4133 291.6878,-118.4133 291.6878,-118.4133"/>
</g>
<!-- PostType -->
<g id="node14" class="node">
<title>PostType</title>
<ellipse fill="none" stroke="#000000" cx="256.6877" cy="-234" rx="42.7972" ry="18"/>
<text text-anchor="middle" x="256.6877" y="-229.8" font-family="Times,serif" font-size="14.00" fill="#000000">PostType</text>
</g>
<!-- PostType&#45;&gt;Post -->
<g id="edge17" class="edge">
<title>PostType&#45;&gt;Post</title>
<path fill="none" stroke="#aae18f" d="M268.977,-208.7192C272.1494,-202.1931 275.5732,-195.1499 278.7763,-188.5607"/>
<ellipse fill="none" stroke="#aae18f" cx="267.0882" cy="-212.6048" rx="4" ry="4"/>
<polygon fill="#aae18f" stroke="#aae18f" points="278.8844,-188.3383 287.3035,-181.312 281.0704,-183.8414 283.2563,-179.3446 283.2563,-179.3446 283.2563,-179.3446 281.0704,-183.8414 279.2092,-177.3772 278.8844,-188.3383 278.8844,-188.3383"/>
</g>
<!-- State -->
<g id="node15" class="node">
<title>State</title>
<ellipse fill="none" stroke="#000000" cx="102.6877" cy="-234" rx="27.5804" ry="18"/>
<text text-anchor="middle" x="102.6877" y="-229.8" font-family="Times,serif" font-size="14.00" fill="#000000">State</text>
</g>
<!-- State&#45;&gt;Address -->
<g id="edge19" class="edge">
<title>State&#45;&gt;Address</title>
<path fill="none" stroke="#4c711d" d="M93.3578,-208.4695C88.0932,-189.6288 84.4086,-163.9133 94.6877,-144 102.8649,-128.1587 118.0738,-115.9529 132.75,-107.1865"/>
<ellipse fill="none" stroke="#4c711d" cx="94.5917" cy="-212.515" rx="4" ry="4"/>
<polygon fill="#4c711d" stroke="#4c711d" points="133.0161,-107.0383 143.942,-106.1019 137.3839,-104.6046 141.7517,-102.1709 141.7517,-102.1709 141.7517,-102.1709 137.3839,-104.6046 139.5613,-98.2399 133.0161,-107.0383 133.0161,-107.0383"/>
</g>
<!-- State&#45;&gt;City -->
<g id="edge18" class="edge">
<title>State&#45;&gt;City</title>
<path fill="none" stroke="#78c22e" d="M112.6082,-208.4903C115.0488,-202.2144 117.6707,-195.4724 120.1398,-189.1233"/>
<ellipse fill="none" stroke="#78c22e" cx="111.0589" cy="-212.4742" rx="4" ry="4"/>
<polygon fill="#78c22e" stroke="#78c22e" points="120.2215,-188.9131 128.04,-181.2241 122.0337,-184.2531 123.846,-179.593 123.846,-179.593 123.846,-179.593 122.0337,-184.2531 119.652,-177.962 120.2215,-188.9131 120.2215,-188.9131"/>
</g>
<!-- User&#45;&gt;Address -->
<g id="edge22" class="edge">
<title>User&#45;&gt;Address</title>
<path fill="none" stroke="#3b58a1" d="M512.9536,-156.9936C455.4152,-148.4672 336.8312,-129.9063 237.6877,-108 229.3101,-106.1489 220.407,-103.9343 211.9197,-101.7017"/>
<ellipse fill="none" stroke="#3b58a1" cx="517.0331" cy="-157.5948" rx="4" ry="4"/>
<ellipse fill="#3b58a1" stroke="#3b58a1" cx="207.8045" cy="-100.6009" rx="4" ry="4"/>
</g>
<!-- User&#45;&gt;ClassroomUser -->
<g id="edge21" class="edge">
<title>User&#45;&gt;ClassroomUser</title>
<path fill="none" stroke="#5b381a" d="M521.5539,-144.8942C506.6355,-135.1294 487.763,-122.7766 471.7003,-112.2627"/>
<ellipse fill="none" stroke="#5b381a" cx="524.9283" cy="-147.1029" rx="4" ry="4"/>
<polygon fill="#5b381a" stroke="#5b381a" points="471.4756,-112.1157 465.573,-102.8739 467.2921,-109.3774 463.1085,-106.6391 463.1085,-106.6391 463.1085,-106.6391 467.2921,-109.3774 460.6441,-110.4042 471.4756,-112.1157 471.4756,-112.1157"/>
</g>
<!-- User&#45;&gt;Course -->
<g id="edge20" class="edge">
<title>User&#45;&gt;Course</title>
<path fill="none" stroke="#a2174f" d="M566.6888,-140.2845C573.8591,-132.0899 582.0607,-122.7167 589.4247,-114.3006"/>
<ellipse fill="none" stroke="#a2174f" cx="563.9918" cy="-143.3668" rx="4" ry="4"/>
<polygon fill="#a2174f" stroke="#a2174f" points="589.5825,-114.1203 599.5541,-109.5578 592.875,-110.3574 596.1675,-106.5945 596.1675,-106.5945 596.1675,-106.5945 592.875,-110.3574 592.7809,-103.6312 589.5825,-114.1203 589.5825,-114.1203"/>
</g>
<!-- User&#45;&gt;Course -->
<g id="edge24" class="edge">
<title>User&#45;&gt;Course</title>
<path fill="none" stroke="#fb362d" d="M561.9108,-138.4568C568.9258,-129.8263 577.4736,-120.1063 585.4955,-111.6496"/>
<ellipse fill="none" stroke="#fb362d" cx="559.2616" cy="-141.8015" rx="4" ry="4"/>
<ellipse fill="#fb362d" stroke="#fb362d" cx="588.7079" cy="-108.3387" rx="4" ry="4"/>
</g>
<!-- User&#45;&gt;Student -->
<g id="edge23" class="edge">
<title>User&#45;&gt;Student</title>
<path fill="none" stroke="#96c101" d="M549.8925,-135.9266C552.2346,-117.37 557.0128,-92.2411 566.6877,-72 572.1116,-60.6528 580.3902,-49.6131 588.3091,-40.5038"/>
<ellipse fill="none" stroke="#96c101" cx="549.4316" cy="-139.9747" rx="4" ry="4"/>
<ellipse fill="#96c101" stroke="#96c101" cx="591.0171" cy="-37.4976" rx="4" ry="4"/>
</g>
<!-- UserChat -->
<g id="node19" class="node">
<title>UserChat</title>
<ellipse fill="none" stroke="#000000" cx="866.6877" cy="-324.5" rx="43.5146" ry="18"/>
<text text-anchor="middle" x="866.6877" y="-320.3" font-family="Times,serif" font-size="14.00" fill="#000000">UserChat</text>
</g>
<!-- UserType -->
<g id="node20" class="node">
<title>UserType</title>
<ellipse fill="none" stroke="#000000" cx="475.6877" cy="-234" rx="44.2164" ry="18"/>
<text text-anchor="middle" x="475.6877" y="-229.8" font-family="Times,serif" font-size="14.00" fill="#000000">UserType</text>
</g>
<!-- UserType&#45;&gt;User -->
<g id="edge25" class="edge">
<title>UserType&#45;&gt;User</title>
<path fill="none" stroke="#258c76" d="M498.3439,-211.3438C506.9682,-202.7195 516.7826,-192.9051 525.3748,-184.3129"/>
<ellipse fill="none" stroke="#258c76" cx="495.2154" cy="-214.4723" rx="4" ry="4"/>
<polygon fill="#258c76" stroke="#258c76" points="525.4792,-184.2085 535.7323,-180.3194 529.0148,-180.673 532.5503,-177.1374 532.5503,-177.1374 532.5503,-177.1374 529.0148,-180.673 529.3683,-173.9554 525.4792,-184.2085 525.4792,-184.2085"/>
</g>
</g>
</svg>
